<svg width="361" height="224" viewBox="0 0 361 224" fill="none" xmlns="http://www.w3.org/2000/svg">
<path d="M8.192 41.656H36.992C49.024 41.656 57.9413 45.496 63.744 53.176C69.5467 60.856 72.448 71.9067 72.448 86.328C72.448 100.749 69.5467 111.8 63.744 119.48C57.9413 127.16 49.024 131 36.992 131H8.192V41.656ZM35.712 115.896C41.4293 115.896 45.6107 114.061 48.256 110.392C50.9013 106.723 52.224 101.389 52.224 94.392V78.136C52.224 71.224 50.9013 65.9333 48.256 62.264C45.6107 58.5947 41.4293 56.76 35.712 56.76H27.136V115.896H35.712ZM86.222 116.28H101.454V79.672H86.222V64.952H120.398V83.64H121.294C121.891 81.2507 122.702 78.9467 123.726 76.728C124.835 74.424 126.201 72.4187 127.822 70.712C129.529 68.92 131.577 67.512 133.966 66.488C136.355 65.464 139.171 64.952 142.414 64.952H148.686V82.36H134.606C129.913 82.36 126.371 83.768 123.982 86.584C121.593 89.3147 120.398 92.6853 120.398 96.696V116.28H142.158V131H86.222V116.28ZM195.996 56.504C191.729 56.504 188.743 55.6507 187.036 53.944C185.415 52.152 184.604 50.0187 184.604 47.544V43.832C184.604 41.272 185.415 39.1387 187.036 37.432C188.743 35.7253 191.729 34.872 195.996 34.872C200.263 34.872 203.207 35.7253 204.828 37.432C206.535 39.1387 207.388 41.272 207.388 43.832V47.544C207.388 50.0187 206.535 52.152 204.828 53.944C203.207 55.6507 200.263 56.504 195.996 56.504ZM165.532 116.28H186.524V79.672H165.532V64.952H205.468V116.28H224.924V131H165.532V116.28ZM237.802 64.952H256.746V76.984H257.642C259.263 73.0587 261.61 69.816 264.682 67.256C267.754 64.696 271.935 63.416 277.226 63.416C280.895 63.416 284.223 64.0987 287.21 65.464C290.282 66.8293 292.885 68.92 295.018 71.736C297.237 74.552 298.943 78.136 300.138 82.488C301.418 86.84 302.058 92.0027 302.058 97.976C302.058 103.949 301.418 109.112 300.138 113.464C298.943 117.816 297.237 121.4 295.018 124.216C292.885 127.032 290.282 129.123 287.21 130.488C284.223 131.853 280.895 132.536 277.226 132.536C271.935 132.536 267.754 131.299 264.682 128.824C261.61 126.264 259.263 122.979 257.642 118.968H256.746V156.6H237.802V64.952ZM269.034 117.816C273.301 117.816 276.586 116.536 278.89 113.976C281.194 111.331 282.346 107.704 282.346 103.096V92.856C282.346 88.248 281.194 84.664 278.89 82.104C276.586 79.4587 273.301 78.136 269.034 78.136C265.706 78.136 262.805 78.9467 260.33 80.568C257.941 82.1893 256.746 84.7493 256.746 88.248V107.704C256.746 111.203 257.941 113.763 260.33 115.384C262.805 117.005 265.706 117.816 269.034 117.816Z" fill="#62AAFF"/>
<path d="M13.2572 178.395H25.5072C28.9405 178.395 31.5572 179.228 33.3572 180.895C35.1905 182.561 36.1072 184.828 36.1072 187.695C36.1072 189.695 35.6072 191.295 34.6072 192.495C33.6405 193.661 32.2405 194.511 30.4072 195.045V195.345C32.5738 195.878 34.2405 196.811 35.4072 198.145C36.6072 199.478 37.2072 201.328 37.2072 203.695C37.2072 206.628 36.2738 208.961 34.4072 210.695C32.5738 212.428 29.9905 213.295 26.6572 213.295H13.2572V178.395ZM24.3572 208.045C26.1572 208.045 27.4738 207.745 28.3072 207.145C29.1405 206.545 29.5572 205.445 29.5572 203.845V202.395C29.5572 200.795 29.1405 199.695 28.3072 199.095C27.4738 198.495 26.1572 198.195 24.3572 198.195H20.5572V208.045H24.3572ZM23.4072 193.195C25.1738 193.195 26.4572 192.911 27.2572 192.345C28.0572 191.745 28.4572 190.678 28.4572 189.145V187.645C28.4572 186.111 28.0572 185.061 27.2572 184.495C26.4572 183.928 25.1738 183.645 23.4072 183.645H20.5572V193.195H23.4072ZM60.8876 187.495H68.4376L56.2876 217.445C55.521 219.345 54.5043 220.795 53.2376 221.795C51.971 222.795 50.2376 223.295 48.0376 223.295H42.9376V217.545H49.1376L50.7376 213.145L40.3376 187.495H48.2876L52.0376 198.345L54.3876 205.845H54.7876L57.0376 198.345L60.8876 187.495ZM102.549 178.395H113.799C118.499 178.395 121.982 179.895 124.249 182.895C126.515 185.895 127.649 190.211 127.649 195.845C127.649 201.478 126.515 205.795 124.249 208.795C121.982 211.795 118.499 213.295 113.799 213.295H102.549V178.395ZM113.299 207.395C115.532 207.395 117.165 206.678 118.199 205.245C119.232 203.811 119.749 201.728 119.749 198.995V192.645C119.749 189.945 119.232 187.878 118.199 186.445C117.165 185.011 115.532 184.295 113.299 184.295H109.949V207.395H113.299ZM145.379 213.895C143.346 213.895 141.512 213.595 139.879 212.995C138.279 212.361 136.912 211.461 135.779 210.295C134.679 209.128 133.829 207.711 133.229 206.045C132.629 204.378 132.329 202.495 132.329 200.395C132.329 198.295 132.629 196.411 133.229 194.745C133.829 193.078 134.679 191.661 135.779 190.495C136.912 189.328 138.279 188.445 139.879 187.845C141.512 187.211 143.329 186.895 145.329 186.895C148.162 186.895 150.429 187.478 152.129 188.645C153.862 189.778 155.179 191.295 156.079 193.195L150.379 196.295C149.912 195.295 149.296 194.461 148.529 193.795C147.796 193.128 146.729 192.795 145.329 192.795C143.629 192.795 142.312 193.295 141.379 194.295C140.479 195.261 140.029 196.595 140.029 198.295V202.495C140.029 204.195 140.479 205.545 141.379 206.545C142.312 207.511 143.662 207.995 145.429 207.995C146.862 207.995 147.979 207.661 148.779 206.995C149.612 206.328 150.312 205.461 150.879 204.395L156.479 207.595C155.546 209.495 154.179 211.028 152.379 212.195C150.612 213.328 148.279 213.895 145.379 213.895ZM183.66 213.295C182.126 213.295 180.893 212.911 179.96 212.145C179.026 211.345 178.476 210.211 178.31 208.745H178.06C177.593 210.445 176.66 211.728 175.26 212.595C173.893 213.461 172.21 213.895 170.21 213.895C167.71 213.895 165.693 213.228 164.16 211.895C162.66 210.528 161.91 208.628 161.91 206.195C161.91 203.495 162.893 201.495 164.86 200.195C166.826 198.895 169.71 198.245 173.51 198.245H177.66V196.945C177.66 195.411 177.293 194.261 176.56 193.495C175.86 192.695 174.66 192.295 172.96 192.295C171.393 192.295 170.126 192.595 169.16 193.195C168.193 193.795 167.36 194.578 166.66 195.545L162.61 191.945C163.476 190.478 164.826 189.278 166.66 188.345C168.526 187.378 170.91 186.895 173.81 186.895C177.343 186.895 180.093 187.711 182.06 189.345C184.06 190.945 185.06 193.378 185.06 196.645V207.945H187.91V213.295H183.66ZM173.01 209.045C174.31 209.045 175.41 208.728 176.31 208.095C177.21 207.461 177.66 206.545 177.66 205.345V202.245H173.71C170.676 202.245 169.16 203.261 169.16 205.295V206.295C169.16 207.195 169.51 207.878 170.21 208.345C170.91 208.811 171.843 209.045 173.01 209.045ZM192.84 207.545H200.44V193.245H192.34V187.495H200.44V183.745C200.44 181.545 201.073 179.761 202.34 178.395C203.64 176.995 205.64 176.295 208.34 176.295H217.09V182.045H207.84V187.495H217.09V193.245H207.84V207.545H215.94V213.295H192.84V207.545Z" fill="white"/>
</svg>
