<svg width="307" height="196" viewBox="0 0 307 196" fill="none" xmlns="http://www.w3.org/2000/svg">
  <path d="M50.304 118.968H49.408C47.7013 122.979 45.312 126.264 42.24 128.824C39.2533 131.299 35.1147 132.536 29.824 132.536C26.1547 132.536 22.784 131.853 19.712 130.488C16.7253 129.123 14.1227 127.032 11.904 124.216C9.77067 121.4 8.064 117.816 6.784 113.464C5.58933 109.112 4.992 103.949 4.992 97.976C4.992 92.0027 5.58933 86.84 6.784 82.488C8.064 78.136 9.77067 74.552 11.904 71.736C14.1227 68.92 16.7253 66.8293 19.712 65.464C22.784 64.0987 26.1547 63.416 29.824 63.416C32.4693 63.416 34.816 63.7573 36.864 64.44C38.912 65.1227 40.704 66.0613 42.24 67.256C43.8613 68.4507 45.2267 69.9013 46.336 71.608C47.5307 73.2293 48.5547 75.0213 49.408 76.984H50.304V36.28H69.248V131H50.304V118.968ZM38.016 117.816C41.344 117.816 44.2027 117.005 46.592 115.384C49.0667 113.763 50.304 111.203 50.304 107.704V88.248C50.304 84.7493 49.0667 82.1893 46.592 80.568C44.2027 78.9467 41.344 78.136 38.016 78.136C33.7493 78.136 30.464 79.4587 28.16 82.104C25.856 84.664 24.704 88.248 24.704 92.856V103.096C24.704 107.704 25.856 111.331 28.16 113.976C30.464 116.536 33.7493 117.816 38.016 117.816ZM86.222 116.28H101.454V79.672H86.222V64.952H120.398V83.64H121.294C121.891 81.2507 122.702 78.9467 123.726 76.728C124.835 74.424 126.201 72.4187 127.822 70.712C129.529 68.92 131.577 67.512 133.966 66.488C136.355 65.464 139.171 64.952 142.414 64.952H148.686V82.36H134.606C129.913 82.36 126.371 83.768 123.982 86.584C121.593 89.3147 120.398 92.6853 120.398 96.696V116.28H142.158V131H86.222V116.28ZM195.996 56.504C191.729 56.504 188.743 55.6507 187.036 53.944C185.415 52.152 184.604 50.0187 184.604 47.544V43.832C184.604 41.272 185.415 39.1387 187.036 37.432C188.743 35.7253 191.729 34.872 195.996 34.872C200.263 34.872 203.207 35.7253 204.828 37.432C206.535 39.1387 207.388 41.272 207.388 43.832V47.544C207.388 50.0187 206.535 52.152 204.828 53.944C203.207 55.6507 200.263 56.504 195.996 56.504ZM165.532 116.28H186.524V79.672H165.532V64.952H205.468V116.28H224.924V131H165.532V116.28ZM237.802 64.952H256.746V76.984H257.642C259.263 73.0587 261.61 69.816 264.682 67.256C267.754 64.696 271.935 63.416 277.226 63.416C280.895 63.416 284.223 64.0987 287.21 65.464C290.282 66.8293 292.885 68.92 295.018 71.736C297.237 74.552 298.943 78.136 300.138 82.488C301.418 86.84 302.058 92.0027 302.058 97.976C302.058 103.949 301.418 109.112 300.138 113.464C298.943 117.816 297.237 121.4 295.018 124.216C292.885 127.032 290.282 129.123 287.21 130.488C284.223 131.853 280.895 132.536 277.226 132.536C271.935 132.536 267.754 131.299 264.682 128.824C261.61 126.264 259.263 122.979 257.642 118.968H256.746V156.6H237.802V64.952ZM269.034 117.816C273.301 117.816 276.586 116.536 278.89 113.976C281.194 111.331 282.346 107.704 282.346 103.096V92.856C282.346 88.248 281.194 84.664 278.89 82.104C276.586 79.4587 273.301 78.136 269.034 78.136C265.706 78.136 262.805 78.9467 260.33 80.568C257.941 82.1893 256.746 84.7493 256.746 88.248V107.704C256.746 111.203 257.941 113.763 260.33 115.384C262.805 117.005 265.706 117.816 269.034 117.816Z" fill="#62AAFF"/>
  <path d="M78.2 151.1H89.45C94.15 151.1 97.6333 152.6 99.9 155.6C102.167 158.6 103.3 162.917 103.3 168.55C103.3 174.183 102.167 178.5 99.9 181.5C97.6333 184.5 94.15 186 89.45 186H78.2V151.1ZM88.95 180.1C91.1833 180.1 92.8167 179.383 93.85 177.95C94.8833 176.517 95.4 174.433 95.4 171.7V165.35C95.4 162.65 94.8833 160.583 93.85 159.15C92.8167 157.717 91.1833 157 88.95 157H85.6V180.1H88.95ZM121.03 186.6C118.997 186.6 117.164 186.3 115.53 185.7C113.93 185.067 112.564 184.167 111.43 183C110.33 181.833 109.48 180.417 108.88 178.75C108.28 177.083 107.98 175.2 107.98 173.1C107.98 171 108.28 169.117 108.88 167.45C109.48 165.783 110.33 164.367 111.43 163.2C112.564 162.033 113.93 161.15 115.53 160.55C117.164 159.917 118.98 159.6 120.98 159.6C123.814 159.6 126.08 160.183 127.78 161.35C129.514 162.483 130.83 164 131.73 165.9L126.03 169C125.564 168 124.947 167.167 124.18 166.5C123.447 165.833 122.38 165.5 120.98 165.5C119.28 165.5 117.964 166 117.03 167C116.13 167.967 115.68 169.3 115.68 171V175.2C115.68 176.9 116.13 178.25 117.03 179.25C117.964 180.217 119.314 180.7 121.08 180.7C122.514 180.7 123.63 180.367 124.43 179.7C125.264 179.033 125.964 178.167 126.53 177.1L132.13 180.3C131.197 182.2 129.83 183.733 128.03 184.9C126.264 186.033 123.93 186.6 121.03 186.6ZM159.311 186C157.778 186 156.544 185.617 155.611 184.85C154.678 184.05 154.128 182.917 153.961 181.45H153.711C153.244 183.15 152.311 184.433 150.911 185.3C149.544 186.167 147.861 186.6 145.861 186.6C143.361 186.6 141.344 185.933 139.811 184.6C138.311 183.233 137.561 181.333 137.561 178.9C137.561 176.2 138.544 174.2 140.511 172.9C142.478 171.6 145.361 170.95 149.161 170.95H153.311V169.65C153.311 168.117 152.944 166.967 152.211 166.2C151.511 165.4 150.311 165 148.611 165C147.044 165 145.778 165.3 144.811 165.9C143.844 166.5 143.011 167.283 142.311 168.25L138.261 164.65C139.128 163.183 140.478 161.983 142.311 161.05C144.178 160.083 146.561 159.6 149.461 159.6C152.994 159.6 155.744 160.417 157.711 162.05C159.711 163.65 160.711 166.083 160.711 169.35V180.65H163.561V186H159.311ZM148.661 181.75C149.961 181.75 151.061 181.433 151.961 180.8C152.861 180.167 153.311 179.25 153.311 178.05V174.95H149.361C146.328 174.95 144.811 175.967 144.811 178V179C144.811 179.9 145.161 180.583 145.861 181.05C146.561 181.517 147.494 181.75 148.661 181.75ZM168.491 180.25H176.091V165.95H167.991V160.2H176.091V156.45C176.091 154.25 176.725 152.467 177.991 151.1C179.291 149.7 181.291 149 183.991 149H192.741V154.75H183.491V160.2H192.741V165.95H183.491V180.25H191.591V186H168.491V180.25Z" fill="#BC4400"/>
  <path d="M7.95 149H15.35V164.9H15.7C16.3333 163.367 17.25 162.1 18.45 161.1C19.65 160.1 21.2833 159.6 23.35 159.6C24.7833 159.6 26.0833 159.867 27.25 160.4C28.45 160.933 29.4667 161.75 30.3 162.85C31.1667 163.95 31.8333 165.35 32.3 167.05C32.8 168.75 33.05 170.767 33.05 173.1C33.05 175.433 32.8 177.45 32.3 179.15C31.8333 180.85 31.1667 182.25 30.3 183.35C29.4667 184.45 28.45 185.267 27.25 185.8C26.0833 186.333 24.7833 186.6 23.35 186.6C21.2833 186.6 19.65 186.117 18.45 185.15C17.25 184.15 16.3333 182.867 15.7 181.3H15.35V186H7.95V149ZM20.15 180.85C21.8167 180.85 23.1 180.35 24 179.35C24.9 178.317 25.35 176.9 25.35 175.1V171.1C25.35 169.3 24.9 167.9 24 166.9C23.1 165.867 21.8167 165.35 20.15 165.35C18.85 165.35 17.7167 165.667 16.75 166.3C15.8167 166.933 15.35 167.933 15.35 169.3V176.9C15.35 178.267 15.8167 179.267 16.75 179.9C17.7167 180.533 18.85 180.85 20.15 180.85ZM56.4805 160.2H64.0305L51.8805 190.15C51.1138 192.05 50.0971 193.5 48.8305 194.5C47.5638 195.5 45.8305 196 43.6305 196H38.5305V190.25H44.7305L46.3305 185.85L35.9305 160.2H43.8805L47.6305 171.05L49.9805 178.55H50.3805L52.6305 171.05L56.4805 160.2Z" fill="white"/>
</svg>
